<svg width="32" height="32" viewBox="0 0 32 32" fill="none" xmlns="http://www.w3.org/2000/svg">
<path d="M16 15.9667C14.5333 15.9667 13.3333 15.5 12.4 14.5667C11.4667 13.6333 11 12.4333 11 10.9667C11 9.50001 11.4667 8.30001 12.4 7.36667C13.3333 6.43334 14.5333 5.96667 16 5.96667C17.4667 5.96667 18.6667 6.43334 19.6 7.36667C20.5333 8.30001 21 9.50001 21 10.9667C21 12.4333 20.5333 13.6333 19.6 14.5667C18.6667 15.5 17.4667 15.9667 16 15.9667ZM5.33334 26.6667V23.5333C5.33334 22.6889 5.54445 21.9667 5.96668 21.3667C6.3889 20.7667 6.93334 20.3111 7.60001 20C9.0889 19.3333 10.5167 18.8333 11.8833 18.5C13.25 18.1667 14.6222 18 16 18C17.3778 18 18.7445 18.1722 20.1 18.5167C21.4556 18.8611 22.8769 19.3577 24.364 20.0063C25.0596 20.3203 25.6172 20.7756 26.037 21.372C26.4568 21.9685 26.6667 22.6889 26.6667 23.5333V26.6667H5.33334ZM7.33334 24.6667H24.6667V23.5333C24.6667 23.1778 24.5611 22.8389 24.35 22.5167C24.1389 22.1945 23.8778 21.9556 23.5667 21.8C22.1445 21.1111 20.8445 20.6389 19.6667 20.3833C18.4889 20.1278 17.2667 20 16 20C14.7333 20 13.5 20.1278 12.3 20.3833C11.1 20.6389 9.80001 21.1111 8.40001 21.8C8.0889 21.9556 7.83334 22.1945 7.63334 22.5167C7.43334 22.8389 7.33334 23.1778 7.33334 23.5333V24.6667ZM16 13.9667C16.8667 13.9667 17.5833 13.6833 18.15 13.1167C18.7167 12.55 19 11.8333 19 10.9667C19 10.1 18.7167 9.38334 18.15 8.81667C17.5833 8.25001 16.8667 7.96667 16 7.96667C15.1333 7.96667 14.4167 8.25001 13.85 8.81667C13.2833 9.38334 13 10.1 13 10.9667C13 11.8333 13.2833 12.55 13.85 13.1167C14.4167 13.6833 15.1333 13.9667 16 13.9667Z" fill="white"/>
</svg>
