<svg width="32" height="32" viewBox="0 0 32 32" fill="none" xmlns="http://www.w3.org/2000/svg">
<g clip-path="url(#clip0_144_230)">
<path d="M0 7.48745C0 6.524 0.763241 5.74365 1.70556 5.74365H30.2739C31.2163 5.74365 31.9795 6.524 31.9795 7.48745V24.5332C31.9795 25.4966 31.2162 26.277 30.2739 26.277H1.70556C0.763241 26.277 0 25.4966 0 24.5332V7.48745Z" fill="#393939"/>
<path d="M6.99283 13.3806C7.2677 13.2904 7.56308 13.237 7.87078 13.237C9.20821 13.237 10.3241 14.1888 10.5785 15.4483L12.4739 15.0626C12.039 12.917 10.1436 11.3047 7.87078 11.3047C7.34975 11.3047 6.84924 11.3908 6.38155 11.5467L6.99283 13.3806ZM4.75693 19.5221L6.03693 18.0739C5.44374 17.5488 5.10454 16.7944 5.10565 16.0021C5.10565 15.1775 5.46667 14.439 6.03693 13.9344L4.75693 12.4862C3.78462 13.3478 3.17334 14.6032 3.17334 16.0021C3.17334 17.4011 3.78462 18.6606 4.75693 19.5221ZM10.5744 16.556C10.3159 17.8155 9.20411 18.7631 7.86667 18.7631C7.55898 18.7631 7.2636 18.7139 6.98872 18.6196L6.37334 20.4534C6.84103 20.6093 7.34155 20.6955 7.86257 20.6955C10.1354 20.6955 12.0267 19.0831 12.4656 16.9416L10.5744 16.556ZM18.7795 17.8523C18.4677 18.1559 18.041 18.3405 17.5734 18.3365C17.2533 18.3323 16.9539 18.2339 16.7037 18.074L16.076 19.0749C16.5068 19.3458 17.0114 19.5057 17.557 19.5139C18.3529 19.5262 19.075 19.2144 19.6042 18.6975L18.7795 17.8523ZM17.6431 13.7826C16.0636 13.758 14.759 15.0216 14.7344 16.6052C14.7262 17.2001 14.8986 17.7539 15.198 18.2134L20.3878 15.9939C20.0965 14.7426 18.9847 13.8031 17.6432 13.7826M15.9242 16.8267C15.916 16.7611 15.9119 16.6913 15.916 16.6216C15.9324 15.6903 16.6996 14.9437 17.6309 14.96C18.1396 14.9682 18.5868 15.198 18.8944 15.559L15.9242 16.8267ZM22.0165 12.4903V18.0246L22.9764 18.4226L22.5211 19.5139L21.5734 19.12C21.36 19.0257 21.2165 18.8862 21.1057 18.7262C20.999 18.5621 20.9211 18.3405 20.9211 18.0411V12.4903H22.0165ZM25.4791 15.0462C25.6474 14.9887 25.8278 14.96 26.0124 14.96C26.8288 14.96 27.5098 15.5385 27.6658 16.3097L28.8227 16.0759C28.556 14.7672 27.3991 13.7826 26.0124 13.7826C25.6966 13.7826 25.3889 13.8359 25.1057 13.9303L25.4791 15.0462ZM24.1171 18.7959L24.9006 17.9138C24.5519 17.6061 24.3304 17.1549 24.3304 16.6502C24.3304 16.1456 24.5519 15.6985 24.9006 15.3867L24.1171 14.5046C23.5222 15.0297 23.1488 15.7969 23.1488 16.6502C23.1488 17.5036 23.5222 18.2708 24.1171 18.7959ZM27.6658 16.9867C27.5098 17.7539 26.8288 18.3364 26.0124 18.3364C25.8236 18.3364 25.6473 18.3077 25.479 18.2502L25.1057 19.3702C25.3929 19.4646 25.6965 19.518 26.0165 19.518C27.4031 19.518 28.56 18.5334 28.8267 17.2246L27.6658 16.9867Z" fill="white"/>
</g>
<defs>
<clipPath id="clip0_144_230">
<rect width="32" height="32" fill="white"/>
</clipPath>
</defs>
</svg>
