<svg width="32" height="32" viewBox="0 0 32 32" fill="none" xmlns="http://www.w3.org/2000/svg">
<path d="M16 28L14.0667 26.2667C11.8222 24.2444 9.96667 22.5 8.5 21.0333C7.03334 19.5667 5.86667 18.25 5.00001 17.0833C4.13334 15.9167 3.52778 14.8444 3.18334 13.8667C2.83889 12.8889 2.66667 11.8889 2.66667 10.8667C2.66667 8.77777 3.36667 7.03333 4.76667 5.63333C6.16667 4.23333 7.91112 3.53333 10 3.53333C11.1556 3.53333 12.2556 3.77777 13.3 4.26666C14.3444 4.75555 15.2444 5.44444 16 6.33333C16.7556 5.44444 17.6556 4.75555 18.7 4.26666C19.7444 3.77777 20.8444 3.53333 22 3.53333C24.0889 3.53333 25.8333 4.23333 27.2333 5.63333C28.6333 7.03333 29.3333 8.77777 29.3333 10.8667C29.3333 11.8889 29.1611 12.8889 28.8167 13.8667C28.4722 14.8444 27.8667 15.9167 27 17.0833C26.1333 18.25 24.9667 19.5667 23.5 21.0333C22.0333 22.5 20.1778 24.2444 17.9333 26.2667L16 28ZM16 24.4C18.1333 22.4889 19.8889 20.85 21.2667 19.4833C22.6444 18.1167 23.7333 16.9278 24.5333 15.9167C25.3333 14.9055 25.8889 14.0055 26.2 13.2167C26.5111 12.4278 26.6667 11.6444 26.6667 10.8667C26.6667 9.53333 26.2222 8.42221 25.3333 7.53333C24.4444 6.64444 23.3333 6.19999 22 6.19999C20.9556 6.19999 19.9889 6.49444 19.1 7.08333C18.2111 7.67221 17.6 8.42221 17.2667 9.33333H14.7333C14.4 8.42221 13.7889 7.67221 12.9 7.08333C12.0111 6.49444 11.0444 6.19999 10 6.19999C8.66667 6.19999 7.55556 6.64444 6.66667 7.53333C5.77778 8.42221 5.33334 9.53333 5.33334 10.8667C5.33334 11.6444 5.48889 12.4278 5.8 13.2167C6.11112 14.0055 6.66667 14.9055 7.46667 15.9167C8.26667 16.9278 9.35556 18.1167 10.7333 19.4833C12.1111 20.85 13.8667 22.4889 16 24.4Z" fill="white"/>
</svg>
