<svg width="32" height="32" viewBox="0 0 32 32" fill="none" xmlns="http://www.w3.org/2000/svg">
<g clip-path="url(#clip0_144_227)">
<path d="M32 5.72314H0V26.236H32V5.72314Z" fill="white"/>
<path d="M13.6845 22.1205L1.92944 22.1248V22.0965C1.92944 22.081 1.94819 21.9801 1.97108 21.8723C1.99402 21.7646 2.02963 21.5932 2.05031 21.4915C2.0709 21.3898 2.10618 21.2169 2.12862 21.1073C2.18384 20.8395 2.23841 20.5716 2.29227 20.3035C2.31348 20.1978 2.34881 20.025 2.37088 19.9194C2.39902 19.7843 2.42684 19.6491 2.45445 19.5139C2.47833 19.3966 2.51463 19.2172 2.53515 19.1155C2.55566 19.0138 2.58823 18.8569 2.60756 18.767C2.62684 18.677 2.65149 18.5554 2.66224 18.4966C2.67303 18.438 2.70795 18.265 2.73982 18.1125C2.76665 17.9846 2.79275 17.8566 2.81798 17.7284C2.82909 17.6697 2.86442 17.4968 2.8965 17.3443C2.92854 17.1917 2.96374 17.0188 2.97474 16.9601C2.98573 16.9015 3.02114 16.7286 3.05338 16.576C3.08571 16.4234 3.12058 16.2538 3.13084 16.199C3.14118 16.1443 3.1694 16.0034 3.19361 15.886C3.21777 15.7687 3.26356 15.5478 3.29531 15.3952C3.3271 15.2426 3.38142 14.9769 3.41601 14.8047C3.45067 14.6326 3.49207 14.4277 3.50803 14.3495C3.55492 14.1194 3.60222 13.8894 3.65002 13.6595C3.67357 13.5459 3.71184 13.3603 3.7351 13.2468C3.75841 13.1333 3.79426 12.9573 3.81482 12.8556C3.83537 12.7539 3.87045 12.5843 3.89277 12.4786C3.91508 12.373 3.95348 12.1872 3.9781 12.066C4.00272 11.9447 4.04395 11.759 4.06971 11.6534C4.09547 11.5477 4.1319 11.4197 4.15069 11.3689C4.16944 11.318 4.22126 11.2078 4.26581 11.1238L4.34684 10.9713L4.42048 10.8748C4.46093 10.8218 4.53326 10.738 4.58114 10.6886C4.62901 10.6392 4.70975 10.5649 4.76066 10.5235C4.81149 10.482 4.88514 10.426 4.92423 10.3991C4.96337 10.3722 5.04021 10.3251 5.09498 10.2944C5.14975 10.2637 5.22663 10.2235 5.26573 10.2051C5.30487 10.1867 5.38491 10.153 5.44358 10.1303C5.50224 10.1077 5.61428 10.0696 5.69252 10.0459C5.77076 10.0221 5.91767 9.98622 6.01896 9.96624C6.12025 9.94622 6.28025 9.91947 6.37465 9.9068L6.54618 9.88374L18.3086 9.87931L30.0711 9.87476V9.90306C30.0711 9.91861 30.0522 10.0195 30.0292 10.1272C30.0001 10.2636 29.9716 10.4 29.9436 10.5365C29.9194 10.6539 29.8844 10.8236 29.8656 10.9136C29.8389 11.0416 29.8124 11.1696 29.7863 11.2977C29.7615 11.419 29.7234 11.6047 29.7016 11.7103C29.6798 11.8159 29.6445 11.9888 29.6232 12.0944C29.6019 12.2001 29.5663 12.3729 29.5443 12.4785C29.5186 12.6018 29.4933 12.7251 29.4682 12.8485C29.4485 12.9463 29.4127 13.1223 29.3888 13.2397C29.3649 13.3571 29.3264 13.5428 29.3034 13.6523C29.2803 13.7619 29.2452 13.9315 29.2253 14.0293C29.2054 14.1271 29.1697 14.3032 29.1458 14.4205C29.1219 14.5379 29.0836 14.7236 29.0605 14.8332C29.0375 14.9427 29.0032 15.1092 28.9842 15.2031C28.9315 15.464 28.8785 15.7248 28.8252 15.9856C28.806 16.0795 28.7716 16.246 28.7489 16.3555C28.7198 16.4953 28.691 16.6352 28.6624 16.7752C28.6376 16.8965 28.6021 17.0693 28.5836 17.1594C28.5649 17.2493 28.5302 17.4189 28.5062 17.5363C28.4782 17.6739 28.45 17.8114 28.4216 17.9489C28.399 18.0585 28.3635 18.2314 28.3428 18.3331C28.3221 18.4348 28.286 18.6109 28.2628 18.7243C28.2395 18.8378 28.2014 19.0234 28.1782 19.1369C28.155 19.2503 28.1202 19.42 28.1008 19.5139C28.0745 19.6419 28.0484 19.7699 28.0224 19.898C27.9944 20.0352 27.9657 20.1722 27.9362 20.3091L27.8933 20.5067L27.8423 20.6434C27.8142 20.7186 27.772 20.8185 27.7485 20.8655C27.7251 20.9124 27.6772 20.9952 27.6421 21.0496C27.6071 21.1038 27.5583 21.1734 27.5337 21.2041C27.509 21.2348 27.4349 21.3142 27.3688 21.3805L27.2489 21.5009L27.1335 21.5829C27.07 21.6281 27.0015 21.674 26.9815 21.6849C26.9614 21.6959 26.8848 21.735 26.8114 21.7717C26.738 21.8085 26.6343 21.8553 26.5809 21.8757C26.5276 21.8961 26.422 21.9309 26.3462 21.9529C26.2704 21.975 26.1892 21.9968 26.1658 22.0013C26.1422 22.0058 26.0608 22.0226 25.9847 22.0388C25.9086 22.0549 25.7549 22.0789 25.6433 22.0922L25.4402 22.1164L13.6851 22.1205H13.6845ZM9.50237 19.0799H9.80825L9.81687 19.0574C9.82167 19.045 9.82553 19.0159 9.82553 18.9927C9.82553 18.9696 9.83562 18.8853 9.84797 18.8055C9.86027 18.7255 9.88916 18.5418 9.91221 18.3971C9.93523 18.2523 9.96969 18.0346 9.98881 17.9133C10.007 17.7984 10.0243 17.6834 10.0407 17.5683C10.0501 17.4998 10.0615 17.4438 10.0662 17.4438C10.0708 17.4438 10.0906 17.4741 10.1101 17.5111L10.1456 17.5783L10.2245 17.6578L10.3034 17.7373L10.4005 17.7762L10.4976 17.815L10.6133 17.83L10.729 17.845L10.8758 17.836L11.0227 17.8269L11.1817 17.7858L11.3408 17.7446L11.4261 17.7057C11.4731 17.6843 11.5563 17.6375 11.611 17.6019L11.7107 17.537L11.8035 17.4442C11.8546 17.3932 11.9266 17.3113 11.9635 17.2622C12.0005 17.2133 12.0308 17.1696 12.0308 17.1653C12.0308 17.1609 12.049 17.1306 12.0711 17.0978C12.0933 17.0651 12.1387 16.9742 12.172 16.896C12.2054 16.8178 12.2574 16.677 12.2878 16.5831L12.3429 16.4123L12.3714 16.2645C12.3871 16.1831 12.4073 16.0487 12.4163 15.9657L12.4325 15.8148L12.4231 15.6867L12.4137 15.5587L12.384 15.4307L12.3543 15.3026L12.3062 15.2068L12.2582 15.1109L12.1653 15.0125L12.0725 14.9141L11.9627 14.8573L11.8529 14.8006L11.7319 14.7716L11.611 14.7427L11.4901 14.7338L11.3692 14.7249L11.2345 14.7404L11.0997 14.7559L10.9898 14.784L10.8798 14.812L10.7843 14.8563C10.7318 14.8805 10.6553 14.9219 10.6144 14.948C10.5735 14.9742 10.5313 15.0042 10.5207 15.0149C10.51 15.0255 10.4845 15.0452 10.464 15.0586L10.4266 15.0831L10.4527 14.9581C10.4671 14.8894 10.4791 14.8252 10.4794 14.8153L10.48 14.7975H9.95828L9.91258 15.0856C9.88739 15.2441 9.84768 15.489 9.82429 15.6299C9.77273 15.9406 9.72054 16.2512 9.66774 16.5617C9.64448 16.6986 9.60604 16.9164 9.58228 17.0455C9.55853 17.1746 9.52378 17.3635 9.50499 17.4652C9.48624 17.5669 9.45088 17.7589 9.42651 17.8919C9.39775 18.0485 9.36871 18.205 9.33937 18.3614C9.3116 18.5086 9.28321 18.6556 9.25428 18.8025C9.23098 18.9198 9.2085 19.0303 9.20419 19.0478L9.19644 19.0799H9.50237V19.0799ZM10.8193 17.435L10.7005 17.4422L10.6229 17.4284L10.5452 17.4147L10.4664 17.3787L10.3875 17.3427L10.3324 17.2901L10.2773 17.2375L10.2455 17.1664C10.228 17.1273 10.2056 17.0608 10.1956 17.0186L10.1775 16.9421L10.1847 16.8195L10.192 16.697L10.2287 16.5048C10.2563 16.358 10.2832 16.211 10.3091 16.0638C10.3332 15.9269 10.3697 15.7262 10.3902 15.6179L10.4274 15.421L10.5089 15.3531C10.5538 15.3159 10.6249 15.2658 10.6669 15.242L10.7432 15.1987L10.8428 15.1678L10.9424 15.137L11.0704 15.1294L11.1984 15.1219L11.3027 15.1442L11.407 15.1664L11.4806 15.2003L11.5541 15.2341L11.6158 15.2962L11.6776 15.3582L11.7108 15.4239C11.7292 15.4601 11.7549 15.5308 11.768 15.5811L11.7918 15.6725L11.7845 15.9429L11.7772 16.2132L11.7407 16.373C11.7206 16.4609 11.6823 16.5953 11.6557 16.6717L11.6072 16.8108L11.5478 16.9232C11.5152 16.9852 11.4648 17.0688 11.4359 17.1091C11.4071 17.1493 11.361 17.2017 11.3336 17.2252C11.3004 17.2534 11.2664 17.2806 11.2317 17.3068L11.1795 17.3458L11.0588 17.3868L10.9381 17.4279L10.8193 17.435ZM13.7736 17.8261L13.9301 17.8279L14.0865 17.8137C14.1727 17.8058 14.3135 17.7895 14.3995 17.7773C14.4857 17.7652 14.6343 17.738 14.73 17.717L14.9039 17.6787L14.9126 17.6146C14.9173 17.5794 14.9369 17.4744 14.956 17.3813L14.9908 17.2121L14.9831 17.2045L14.9754 17.1968L14.9222 17.2224C14.893 17.2366 14.8019 17.2703 14.7198 17.2973L14.5706 17.3464L14.4139 17.3768L14.2573 17.4071L14.0083 17.4077L13.7594 17.4081L13.674 17.3809C13.627 17.3659 13.558 17.3385 13.5205 17.3199L13.4525 17.2862L13.3963 17.2355L13.3401 17.1847L13.2963 17.1081L13.2524 17.0314L13.2249 16.9354L13.1974 16.8392L13.1973 16.6613L13.1971 16.4834L13.2214 16.3248L13.2459 16.166L13.46 16.156L13.6741 16.146L14.4655 16.1511L15.2569 16.1562L15.2807 16.0549C15.2939 15.9991 15.314 15.8839 15.3254 15.7988L15.3462 15.644L15.3466 15.5139L15.3471 15.3837L15.3246 15.2866L15.302 15.1894L15.2647 15.1251C15.2443 15.0897 15.2081 15.0384 15.1845 15.0111C15.1609 14.9838 15.1187 14.9453 15.0908 14.9256C15.0627 14.9059 15.0079 14.8727 14.9687 14.8519L14.8976 14.8141L14.7734 14.7841L14.6491 14.7542L14.496 14.7396L14.3428 14.725L14.2006 14.7342L14.0583 14.7435L13.8876 14.7763L13.7168 14.8091L13.6101 14.8517C13.5514 14.8751 13.4618 14.918 13.411 14.9468C13.3601 14.9757 13.2897 15.0226 13.2545 15.0511C13.2192 15.0796 13.1582 15.1351 13.119 15.1744C13.0797 15.2137 13.0215 15.2842 12.9898 15.3311C12.9581 15.3781 12.9094 15.4613 12.8816 15.5161C12.8539 15.5709 12.8177 15.6477 12.8013 15.6868C12.7849 15.7259 12.755 15.806 12.7349 15.8646C12.7148 15.9234 12.6832 16.0354 12.6648 16.1136C12.6431 16.2085 12.6243 16.3039 12.6085 16.3999L12.5858 16.5439L12.586 16.7556L12.5863 16.9673L12.6078 17.0597C12.6197 17.1106 12.6425 17.1875 12.6583 17.2305C12.6742 17.2735 12.7036 17.3375 12.7237 17.3728C12.7438 17.408 12.7866 17.4646 12.8188 17.4988C12.851 17.5328 12.9095 17.5846 12.9486 17.6137C12.9877 17.6428 13.0573 17.6838 13.1033 17.7047L13.187 17.7428L13.3036 17.771C13.3677 17.7865 13.4645 17.8049 13.5187 17.8119C13.5728 17.8186 13.6875 17.8252 13.7736 17.8261ZM14.0415 15.8219C13.6477 15.8219 13.3254 15.8191 13.3254 15.8156C13.3254 15.8122 13.3422 15.7626 13.3628 15.7054C13.3833 15.6482 13.4194 15.5631 13.4429 15.5163L13.4858 15.4311L13.5799 15.3375L13.674 15.2438L13.7665 15.1996C13.8173 15.1753 13.8846 15.1488 13.9159 15.1408C13.9472 15.1327 14.0368 15.1221 14.115 15.1171L14.2573 15.1079L14.3666 15.122L14.4758 15.136L14.5552 15.1724L14.6347 15.2088L14.6782 15.2558C14.7022 15.2816 14.7307 15.3196 14.7417 15.3402L14.7615 15.3778L14.7746 15.4612L14.7878 15.5445L14.7727 15.6832L14.7577 15.822H14.0415V15.8219ZM18.2979 17.8262L18.4545 17.8279L18.6323 17.8069C18.73 17.7953 18.8602 17.7761 18.9215 17.7642C18.9956 17.7493 19.0691 17.7318 19.142 17.7118C19.202 17.6949 19.2563 17.6765 19.2626 17.6711C19.2689 17.6656 19.2858 17.6011 19.3002 17.5276C19.3146 17.4542 19.3327 17.3557 19.3405 17.3087C19.3482 17.2617 19.3522 17.2208 19.3494 17.2177C19.3465 17.2147 19.336 17.2186 19.3261 17.2265C19.3161 17.2345 19.2463 17.2638 19.171 17.2918L19.034 17.3427L18.8389 17.3805L18.6437 17.4183L18.4779 17.4126L18.312 17.407L18.2178 17.3742L18.1236 17.3415L18.0508 17.2779L17.9781 17.2142L17.9297 17.1262L17.8814 17.0383L17.8584 16.9206L17.8354 16.803L17.8356 16.6503L17.8357 16.4976L17.8636 16.3127L17.8916 16.1277L17.9212 16.0281C17.9374 15.9733 17.9559 15.9093 17.9621 15.8858C17.9683 15.8623 17.9944 15.7951 18.0201 15.7364C18.0457 15.6777 18.0915 15.587 18.1218 15.5349L18.1768 15.44L18.2445 15.3699L18.3121 15.2998L18.3837 15.2554L18.4554 15.211L18.5473 15.1826C18.5979 15.1671 18.6874 15.1468 18.746 15.1377L18.8528 15.1211L19.0092 15.1289L19.1657 15.1367L19.3507 15.1738L19.5356 15.2107L19.6108 15.2388C19.6522 15.2542 19.6878 15.2669 19.6901 15.2669C19.6923 15.2669 19.7022 15.2141 19.7121 15.1495C19.7221 15.085 19.7397 14.9788 19.7514 14.9135C19.763 14.8482 19.7698 14.792 19.7663 14.7886C19.7629 14.7852 19.7073 14.7763 19.6428 14.769C19.5783 14.7616 19.4029 14.7486 19.2531 14.7399L18.9808 14.7243L18.7886 14.739L18.5966 14.7538L18.4543 14.7836L18.312 14.8135L18.2204 14.8502C18.17 14.8703 18.0962 14.9067 18.0564 14.931C18.0182 14.9543 17.9806 14.9785 17.9438 15.0037C17.9216 15.0193 17.8545 15.0804 17.7945 15.1394L17.6856 15.2466L17.6247 15.3357C17.5913 15.3847 17.5334 15.4869 17.4961 15.5628L17.4284 15.7008L17.3764 15.8502C17.3478 15.9324 17.3079 16.0668 17.2878 16.149L17.251 16.2984L17.2377 16.4336L17.2244 16.5687L17.2245 16.7466L17.2247 16.9244L17.2381 17.0278L17.2515 17.1313L17.2942 17.2377L17.3367 17.3441L17.386 17.4211L17.4352 17.498L17.5134 17.575L17.5917 17.652L17.6745 17.6958L17.7573 17.7395L17.8661 17.7698C17.9258 17.7863 18.0123 17.8054 18.0581 17.8121C18.104 17.8188 18.2119 17.8251 18.2981 17.826H18.2979V17.8262ZM20.6382 17.821L20.8302 17.8154L20.9512 17.7845L21.0721 17.7535L21.1504 17.7166C21.1934 17.6963 21.2638 17.656 21.3068 17.6273C21.3499 17.5986 21.4166 17.5439 21.4549 17.5059C21.4933 17.4678 21.5502 17.4029 21.5813 17.3616C21.6125 17.3203 21.6399 17.2884 21.6422 17.2907C21.6446 17.293 21.6373 17.3587 21.6262 17.4368C21.6152 17.515 21.606 17.6189 21.6058 17.6679L21.6056 17.7567H22.1278L22.1358 17.5541L22.1437 17.3513L22.181 17.0881C22.2015 16.9433 22.2346 16.7288 22.2546 16.6115C22.2745 16.4942 22.3092 16.2957 22.3317 16.1705C22.3541 16.0452 22.3897 15.85 22.4106 15.7365L22.4489 15.5303L22.4502 15.352L22.4514 15.1738L22.4112 15.0915L22.3709 15.0091L22.3163 14.9567L22.2616 14.9042L22.1719 14.8588L22.0822 14.8134L21.9485 14.7836L21.8148 14.7538L21.6307 14.7399L21.4467 14.7258L21.2096 14.7405C21.0791 14.7486 20.8957 14.7645 20.8018 14.7759L20.631 14.7966L20.5147 14.7971L20.3983 14.7975L20.3814 14.8794C20.3721 14.9243 20.3462 15.0312 20.3239 15.1169C20.3015 15.2026 20.2854 15.2747 20.2879 15.2772C20.2904 15.2797 20.3527 15.2656 20.4262 15.2458C20.4997 15.226 20.656 15.1935 20.7733 15.1735L20.9867 15.1371L21.1788 15.1292L21.3709 15.1213L21.4946 15.143L21.6184 15.1647L21.7009 15.2054L21.7835 15.2462L21.8298 15.3151L21.876 15.384L21.8754 15.4926L21.8747 15.6013L21.8501 15.7205L21.8256 15.8398L21.3137 15.8416L20.8017 15.8434L20.6342 15.8894C20.5421 15.9146 20.4401 15.9482 20.4075 15.9639C20.3749 15.9797 20.3423 15.9925 20.3351 15.9925C20.3278 15.9925 20.273 16.0229 20.2133 16.0601L20.1046 16.1276L20.0191 16.213C19.972 16.26 19.9119 16.3304 19.8855 16.3695C19.859 16.4086 19.8161 16.4903 19.7901 16.5511L19.7427 16.6616L19.721 16.7859L19.6993 16.9101V17.1708L19.72 17.2794L19.7408 17.3879L19.7793 17.4587C19.8005 17.4976 19.8394 17.5546 19.8657 17.5854L19.9136 17.6414L19.9987 17.6931L20.0837 17.7448L20.1812 17.7723C20.2348 17.7874 20.3163 17.8058 20.3624 17.8131L20.4462 17.8263L20.6382 17.8208H20.6382V17.821ZM20.816 17.4231L20.7022 17.4291L20.6268 17.4098C20.5854 17.3993 20.5225 17.3758 20.4871 17.3575L20.4227 17.3244L20.3875 17.2826C20.3682 17.2595 20.3387 17.2144 20.3219 17.1822L20.2914 17.1237L20.2854 16.9869L20.2794 16.8501L20.3035 16.7672C20.3168 16.7216 20.3479 16.6423 20.3727 16.5912L20.4178 16.4982L20.5041 16.4126L20.5903 16.3269L20.6819 16.2828L20.7734 16.2388L20.8872 16.2117L21.001 16.1847H21.7124L21.7349 16.194L21.7574 16.2033L21.7385 16.315C21.7281 16.3764 21.7033 16.4874 21.6832 16.5618C21.6634 16.6362 21.6281 16.7454 21.6051 16.8046C21.582 16.8638 21.563 16.9162 21.563 16.921C21.563 16.9258 21.5397 16.9689 21.5111 17.0169L21.4591 17.1041L21.3738 17.1887C21.3269 17.2351 21.2833 17.2732 21.277 17.2732C21.2707 17.2732 21.242 17.2892 21.2131 17.3088L21.1607 17.3443L21.0453 17.3808L20.9299 17.4173L20.816 17.4231ZM25.447 17.826L25.5822 17.8277L25.7102 17.8069C25.7807 17.7955 25.8703 17.7771 25.9094 17.766C25.9485 17.7549 26.019 17.7262 26.0659 17.7022L26.1513 17.6585L26.2247 17.5938L26.2981 17.5292L26.3755 17.4261C26.418 17.3693 26.4565 17.3133 26.4611 17.3015L26.4693 17.2802L26.4621 17.3513C26.457 17.3989 26.4505 17.4464 26.4425 17.4936C26.4355 17.5327 26.4258 17.608 26.4206 17.6608L26.4112 17.7568H26.9694V17.5647L27.0119 17.2019C27.0352 17.0023 27.0698 16.7367 27.0887 16.6115C27.1076 16.4862 27.1367 16.307 27.1535 16.2131C27.1702 16.1192 27.1999 15.9495 27.2193 15.8361C27.2389 15.7227 27.2741 15.5242 27.2976 15.3951C27.3211 15.2659 27.3588 15.0611 27.3813 14.9398C27.4038 14.8185 27.4388 14.6296 27.4591 14.5201C27.4794 14.4106 27.5156 14.2184 27.5397 14.0933C27.5649 13.9627 27.5909 13.8323 27.6179 13.702C27.6368 13.6121 27.6523 13.5336 27.6522 13.5278V13.5171H27.0433L27.0343 13.606C27.0293 13.6549 27.006 13.8165 26.9825 13.9653C26.9545 14.1408 26.9261 14.3163 26.8972 14.4916C26.8803 14.5928 26.8636 14.694 26.8471 14.7952L26.8395 14.8426L26.8155 14.8324C26.8023 14.8268 26.7306 14.8069 26.6563 14.7882L26.5212 14.7543L26.3362 14.7398L26.1512 14.7254L25.9947 14.7399L25.8382 14.7546L25.696 14.7905L25.5537 14.8265L25.4186 14.8924L25.2833 14.9583L25.1837 15.032L25.0842 15.1057L24.9981 15.198C24.9508 15.2487 24.8825 15.3326 24.8462 15.3844L24.7804 15.4786L24.7031 15.6395C24.6606 15.728 24.6088 15.8453 24.5881 15.9C24.5673 15.9548 24.5308 16.0762 24.5068 16.1699L24.4633 16.3401L24.4418 16.5612L24.4204 16.7822L24.4365 16.96L24.4527 17.1379L24.4717 17.2019C24.4822 17.2371 24.5043 17.2998 24.5207 17.3412L24.5508 17.4167L24.6055 17.4908L24.6604 17.565L24.7229 17.6162L24.7854 17.6674L24.8707 17.7098C24.9178 17.7331 24.9964 17.7632 25.0458 17.7767C25.095 17.7902 25.1751 17.8065 25.2236 17.8128C25.2722 17.8192 25.3726 17.8251 25.447 17.826ZM25.6896 17.4224L25.5822 17.4281L25.5097 17.4151C25.4698 17.4079 25.406 17.3886 25.3679 17.3723L25.2986 17.3426L25.2403 17.2948L25.182 17.247L25.1386 17.164L25.0953 17.0811L25.0755 16.9886L25.0558 16.8961L25.0575 16.7111L25.0591 16.5262L25.0821 16.3626L25.105 16.199L25.1407 16.0852C25.1603 16.0226 25.1765 15.9635 25.1765 15.9539C25.1767 15.9444 25.196 15.8932 25.2196 15.8402C25.2471 15.7788 25.2763 15.7182 25.307 15.6584C25.3315 15.6114 25.3774 15.5383 25.4088 15.4957C25.4404 15.4533 25.4965 15.3892 25.5336 15.3534C25.5707 15.3178 25.6297 15.2708 25.6647 15.2492L25.7284 15.2101L25.8403 15.1714L25.9522 15.1326L26.1869 15.1325H26.4217L26.5568 15.1701C26.6312 15.1907 26.7101 15.2146 26.7322 15.2232L26.7725 15.2389L26.7646 15.2779C26.7604 15.2994 26.7434 15.3938 26.7271 15.4876C26.7107 15.5815 26.6785 15.7608 26.6555 15.886C26.6325 16.0112 26.5971 16.2001 26.5769 16.3057C26.5567 16.4113 26.5274 16.5458 26.5118 16.6044C26.4958 16.6647 26.4796 16.725 26.4631 16.7851C26.4518 16.8257 26.4249 16.8962 26.4034 16.9416C26.3819 16.987 26.3442 17.053 26.3196 17.0881C26.2951 17.1233 26.2537 17.1722 26.2275 17.1966C26.2013 17.221 26.1446 17.2643 26.1016 17.2929L26.0234 17.345L25.9103 17.3809L25.7972 17.4168L25.6896 17.4224ZM4.75094 17.7568H5.09658L5.1214 17.6039C5.13502 17.5197 5.16169 17.358 5.1806 17.2446L5.25884 16.7751C5.28296 16.6303 5.31915 16.4158 5.33921 16.2985C5.35927 16.1811 5.39119 15.9991 5.41006 15.894C5.42897 15.7887 5.44805 15.6991 5.4524 15.6947L5.4604 15.6868H7.31939L7.32973 15.6971L7.34007 15.7075L7.32391 15.7896C7.31508 15.8348 7.28887 15.9741 7.26569 16.0994C7.24251 16.2246 7.20354 16.4358 7.17904 16.5689C7.15332 16.7089 7.12715 16.8487 7.10052 16.9886C7.08173 17.0864 7.04374 17.2912 7.01609 17.4438C6.98848 17.5964 6.96592 17.7292 6.966 17.739L6.96616 17.7568H7.66036L7.6757 17.6679C7.68419 17.619 7.69773 17.531 7.70594 17.4723C7.71406 17.4136 7.73379 17.2887 7.74967 17.1948C7.76555 17.101 7.79726 16.9152 7.82019 16.7822C7.84308 16.6492 7.88148 16.4219 7.90544 16.2771C7.9294 16.1324 7.96493 15.9211 7.98446 15.8077C8.00916 15.6652 8.03488 15.523 8.06159 15.3809C8.08452 15.2596 8.12276 15.0547 8.14655 14.9255C8.17035 14.7965 8.20592 14.6012 8.22569 14.4916C8.24546 14.3821 8.28148 14.1836 8.30577 14.0506C8.33006 13.9176 8.36071 13.7624 8.37387 13.7056L8.39783 13.6024H7.69494L7.68538 13.67C7.68017 13.7071 7.66319 13.8112 7.64768 13.9012C7.63213 13.9912 7.60399 14.1512 7.58503 14.2569C7.56608 14.3626 7.53145 14.5642 7.50807 14.7051C7.48514 14.843 7.46306 14.9811 7.44185 15.1194L7.41814 15.2776L6.90224 15.2881L6.38631 15.2985L5.95422 15.2883C5.71656 15.2826 5.52079 15.2769 5.51915 15.2755C5.51755 15.2741 5.52563 15.2189 5.53712 15.1527C5.55225 15.0673 5.56838 14.9821 5.58548 14.8971C5.60731 14.7882 5.62852 14.6791 5.64907 14.5698C5.66897 14.4642 5.69145 14.333 5.69913 14.2782C5.70676 14.2235 5.7228 14.1322 5.73474 14.0755C5.74667 14.0188 5.76932 13.8992 5.78507 13.8099C5.80079 13.7206 5.81757 13.6373 5.82237 13.625L5.83098 13.6024H5.13375L5.11147 13.7269C5.09917 13.7954 5.0828 13.893 5.07508 13.9438C5.06733 13.9947 5.04136 14.158 5.01736 14.3066C4.99336 14.4553 4.95792 14.6762 4.93859 14.7975L4.86052 15.2883C4.83307 15.4593 4.80411 15.63 4.77371 15.8005C4.7484 15.9404 4.72259 16.0803 4.69629 16.2202C4.67779 16.318 4.64255 16.5036 4.61794 16.6328C4.59213 16.7681 4.5655 16.9033 4.53814 17.0383C4.51886 17.1322 4.49757 17.241 4.49084 17.2801C4.48403 17.3192 4.46204 17.4321 4.44185 17.5309C4.42171 17.6297 4.40522 17.7209 4.40522 17.7336V17.7567H4.75094V17.7568ZM8.57773 17.7568H8.88374L8.89236 17.7343C8.89716 17.7219 8.90101 17.6894 8.90101 17.6622C8.90101 17.6348 8.92029 17.4929 8.94376 17.3468C8.99746 17.0137 9.05248 16.6809 9.10885 16.3483C9.13301 16.2081 9.15841 16.0682 9.18512 15.9286C9.20776 15.8112 9.24255 15.6287 9.26241 15.5232C9.28222 15.4175 9.32128 15.2165 9.34914 15.0765C9.37699 14.9365 9.40325 14.8163 9.40747 14.8095L9.41523 14.797L9.10577 14.8008L8.79632 14.8046L8.77047 14.9896C8.75636 15.0913 8.72534 15.2931 8.70163 15.4378C8.67796 15.5825 8.6421 15.8035 8.62196 15.9286C8.59759 16.0782 8.57158 16.2277 8.54401 16.3768C8.52124 16.4981 8.48637 16.6837 8.46647 16.7893C8.44661 16.895 8.41096 17.0807 8.38725 17.202C8.36354 17.3233 8.33174 17.4833 8.31656 17.5577C8.30134 17.632 8.28505 17.7072 8.28029 17.7248L8.27172 17.7568H8.57773V17.7568ZM15.7351 17.7568H16.0388L16.0479 17.6282C16.053 17.5576 16.0701 17.4151 16.0861 17.3117C16.1021 17.2083 16.1349 17.002 16.1589 16.8534C16.1893 16.6696 16.2223 16.4862 16.2581 16.3034C16.2887 16.1496 16.3232 15.9968 16.3349 15.9637C16.3465 15.9307 16.3561 15.8949 16.3561 15.8842C16.3561 15.8734 16.3789 15.815 16.4068 15.7544C16.4347 15.6937 16.4867 15.6008 16.5224 15.5479L16.5872 15.4518L16.674 15.3714L16.7608 15.291L16.8678 15.2399L16.9749 15.1888L17.1385 15.1896L17.302 15.1905L17.3825 15.2145C17.4267 15.2277 17.4668 15.2385 17.4714 15.2385C17.4761 15.2385 17.4799 15.2234 17.4799 15.2049C17.4799 15.1865 17.4959 15.0928 17.5155 14.9967C17.535 14.9007 17.551 14.8181 17.551 14.8131C17.551 14.8081 17.5046 14.79 17.4479 14.7727C17.3911 14.7555 17.3127 14.7374 17.2736 14.7326L17.2025 14.7238L17.11 14.7401C17.0591 14.7491 16.9835 14.769 16.942 14.7843C16.9003 14.7996 16.8317 14.8342 16.7893 14.8613C16.7471 14.8883 16.6812 14.9411 16.6431 14.9785C16.6049 15.0159 16.5408 15.0913 16.5005 15.1461C16.4691 15.1886 16.438 15.2314 16.4069 15.2741L16.3866 15.3026L16.3989 15.2457C16.4058 15.2143 16.4247 15.1119 16.441 15.018C16.4573 14.9241 16.4742 14.836 16.4783 14.8224L16.4859 14.7975H15.9433V14.8318C15.9433 14.8506 15.9273 14.9643 15.9078 15.0843C15.8882 15.2044 15.8559 15.4049 15.8361 15.5302C15.8162 15.6554 15.7809 15.873 15.7577 16.0139C15.7329 16.1635 15.7068 16.3129 15.6793 16.462C15.6258 16.7468 15.571 17.0314 15.515 17.3157C15.491 17.437 15.4624 17.5802 15.4513 17.6341C15.4402 17.6878 15.4312 17.7374 15.4312 17.7443V17.7568H15.7351ZM22.9457 17.7568H23.2563V17.5667L23.292 17.3309C23.3118 17.2013 23.3442 16.9959 23.3643 16.8747C23.3843 16.7534 23.4092 16.5998 23.4197 16.5332C23.4302 16.4668 23.4579 16.3227 23.4813 16.2132C23.5048 16.1036 23.5341 15.9852 23.5464 15.95C23.5588 15.9148 23.5689 15.8778 23.5691 15.8678C23.5693 15.8579 23.5957 15.794 23.6279 15.7258L23.6866 15.6018L23.764 15.499L23.8413 15.3963L23.9259 15.3326C23.9724 15.2976 24.0473 15.2512 24.0923 15.2294L24.174 15.1898L24.3518 15.191L24.5296 15.1923L24.5997 15.2147L24.6697 15.2373L24.6815 15.2299L24.6933 15.2226L24.694 15.1772C24.6942 15.1523 24.7095 15.0594 24.7277 14.9708L24.761 14.8097L24.7236 14.7951C24.6878 14.7818 24.6516 14.7695 24.6151 14.7581L24.544 14.7356L24.4159 14.736L24.2879 14.7363L24.1835 14.7731L24.0791 14.8098L24.0008 14.857L23.9225 14.9043L23.8206 15.011L23.7187 15.1177L23.664 15.2005C23.6339 15.246 23.6074 15.2812 23.6051 15.2787C23.6028 15.2762 23.6192 15.1814 23.6415 15.0679C23.6638 14.9544 23.6823 14.8472 23.6826 14.8296L23.6833 14.7975H23.1568V14.8067C23.1568 14.8116 23.1438 14.9029 23.1277 15.0094C23.1116 15.1159 23.0794 15.3215 23.0561 15.4663C23.0282 15.6394 22.9998 15.8125 22.9711 15.9856C22.9462 16.1351 22.92 16.2846 22.8926 16.4337C22.8728 16.5393 22.8378 16.7251 22.8146 16.8463C22.7915 16.9676 22.7535 17.1629 22.7302 17.2803L22.6615 17.6252L22.6353 17.7568H22.9457V17.7568ZM9.17958 14.2851L9.26589 14.2854L9.33457 14.262L9.40329 14.2386L9.46405 14.177L9.52485 14.1153L9.55681 14.0332L9.58885 13.951L9.58996 13.8301L9.59111 13.7092L9.56267 13.662L9.5342 13.6148L9.48468 13.5842L9.43513 13.5535H9.22122L9.1484 13.5861L9.07558 13.6186L9.03332 13.6639L8.99106 13.7092L8.95783 13.7875L8.92464 13.8657L8.91837 13.9876L8.91213 14.1095L8.94298 14.1701L8.97392 14.2307L9.03357 14.2577L9.09318 14.2848L9.17958 14.2851Z" fill="#B3131B"/>
</g>
<defs>
<clipPath id="clip0_144_227">
<rect width="32" height="32" fill="white"/>
</clipPath>
</defs>
</svg>
