<svg width="130" height="37" viewBox="0 0 130 37" fill="none" xmlns="http://www.w3.org/2000/svg">
<path d="M12.976 35.768C11.6107 35.768 10.224 35.7253 8.816 35.64C7.408 35.5973 6.02133 35.4907 4.656 35.32C1.62667 35.064 0.112 34.0827 0.112 32.376C0.112 31.5227 0.453333 30.4987 1.136 29.304C2.75733 26.36 4.42133 23.4373 6.128 20.536C7.83467 17.592 9.52 14.648 11.184 11.704C11.696 10.7653 12.3573 9.592 13.168 8.184C13.9787 6.776 14.7893 5.432 15.6 4.152C15.984 3.55467 16.5387 2.95733 17.264 2.36C17.9893 1.72 18.736 1.31466 19.504 1.144C18.608 1.18667 17.456 1.25067 16.048 1.336C14.6827 1.42133 13.2747 1.592 11.824 1.848C10.416 2.06133 9.136 2.424 7.984 2.936C6.87467 3.40533 6.08533 4.06667 5.616 4.92C5.44533 5.304 5.296 5.688 5.168 6.072C5.04 6.456 4.976 6.84 4.976 7.224C4.976 8.20533 5.31733 8.90933 6 9.336C6.04267 9.336 6.064 9.37867 6.064 9.464C6.064 9.54933 5.97867 9.63467 5.808 9.72C5.68 9.80533 5.552 9.82667 5.424 9.784C5.04 9.57067 4.57067 9.05867 4.016 8.248C3.46133 7.39467 3.12 6.69066 2.992 6.136C2.864 5.624 2.8 5.15466 2.8 4.728C2.8 3.61867 3.16267 2.76533 3.888 2.168C4.61333 1.528 5.53067 1.08 6.64 0.823997C7.74933 0.525332 8.88 0.354665 10.032 0.311996C11.184 0.226664 12.208 0.183998 13.104 0.183998C15.3653 0.183998 17.6267 0.162665 19.888 0.119999C22.1493 0.0346642 24.3893 -0.00800323 26.608 -0.00800323C27.5893 -0.00800323 28.5493 -0.00800323 29.488 -0.00800323C30.4693 -0.00800323 31.4293 0.0346642 32.368 0.119999C33.4347 0.162665 34.16 0.375998 34.544 0.759998C34.9707 1.144 35.184 1.61333 35.184 2.168C35.184 2.85067 34.9493 3.64 34.48 4.536C34.0533 5.38933 33.648 6.17867 33.264 6.904C33.0933 7.24533 32.816 7.50133 32.432 7.672C32.048 7.8 31.8987 7.672 31.984 7.288C32.1973 6.43467 32.304 5.58133 32.304 4.728C32.304 3.96 32.1547 3.27733 31.856 2.68C31.6 2.04 31.088 1.592 30.32 1.336C29.5947 1.12267 28.464 1.016 26.928 1.016C26.3733 1.016 25.7973 1.03733 25.2 1.08C24.6453 1.08 24.0693 1.10133 23.472 1.144C21.7653 1.272 20.6133 1.72 20.016 2.488C18.608 4.45067 17.2427 6.584 15.92 8.888C14.64 11.1493 13.4027 13.304 12.208 15.352C12.1653 15.4373 12.144 15.544 12.144 15.672C12.144 15.928 12.336 16.056 12.72 16.056C14.2133 16.056 15.8133 16.0773 17.52 16.12C19.2693 16.1627 20.8053 16.1627 22.128 16.12C22.4267 16.0773 22.8747 16.0347 23.472 15.992C24.112 15.9493 24.752 15.864 25.392 15.736C26.0747 15.608 26.5867 15.4587 26.928 15.288C27.1413 15.16 27.2693 15.096 27.312 15.096C27.568 15.096 27.568 15.352 27.312 15.864C27.0987 16.3333 26.7147 16.824 26.16 17.336C25.648 17.8053 25.0507 18.04 24.368 18.04C22.2773 18.04 20.5067 17.9973 19.056 17.912C17.648 17.8267 16.0693 17.784 14.32 17.784C13.8933 17.784 13.4453 17.784 12.976 17.784C12.5067 17.784 11.9947 17.8053 11.44 17.848C11.0133 17.8907 10.7147 18.0613 10.544 18.36C10.1173 19.128 9.73333 19.832 9.392 20.472C9.09333 21.112 8.70933 21.8587 8.24 22.712C7.89867 23.352 7.472 24.184 6.96 25.208C6.49067 26.1893 6.064 27.2133 5.68 28.28C5.296 29.304 5.104 30.2 5.104 30.968C5.104 32.2907 5.72267 33.208 6.96 33.72C8.19733 34.1893 9.712 34.4453 11.504 34.488C13.9787 34.488 16.4107 34.2533 18.8 33.784C21.232 33.272 23.4933 32.44 25.584 31.288C27.7173 30.0933 29.5733 28.4933 31.152 26.488C31.2373 26.4027 31.3013 26.36 31.344 26.36C31.472 26.36 31.5573 26.488 31.6 26.744C31.6427 26.9573 31.6213 27.128 31.536 27.256C30.2133 28.8773 28.9333 30.456 27.696 31.992C26.4587 33.4853 25.2213 34.424 23.984 34.808C23.088 35.064 21.6373 35.2773 19.632 35.448C17.6267 35.6613 15.408 35.768 12.976 35.768ZM34.5785 36.024C33.8105 36.024 32.9998 35.9173 32.1465 35.704C31.2932 35.4907 30.5252 35.1493 29.8425 34.68C29.2025 34.168 28.7758 33.4853 28.5625 32.632C28.5198 32.504 28.4985 32.312 28.4985 32.056C28.4985 31.4587 28.6265 30.7973 28.8825 30.072C29.1812 29.3467 29.5438 28.8347 29.9705 28.536C30.1412 28.4507 30.2692 28.4507 30.3545 28.536C30.4825 28.6213 30.5038 28.7067 30.4185 28.792C30.3758 28.92 30.3118 29.0907 30.2265 29.304C30.1412 29.4747 30.0772 29.6667 30.0345 29.88C29.9065 30.9893 30.1412 31.9707 30.7385 32.824C30.9945 33.1653 31.2932 33.4853 31.6345 33.784C32.0185 34.0827 32.3812 34.3387 32.7225 34.552C33.0212 34.7227 33.3838 34.8507 33.8105 34.936C34.2372 34.9787 34.6638 35 35.0905 35C35.7732 35 36.4345 34.9147 37.0745 34.744C37.7145 34.5733 38.1838 34.296 38.4825 33.912C39.0372 33.2293 39.3145 32.4613 39.3145 31.608C39.3145 30.968 39.1438 30.2853 38.8025 29.56C38.4612 28.8347 37.9278 28.0667 37.2025 27.256C36.7332 26.744 36.2852 26.1893 35.8585 25.592C35.4318 24.9947 35.1545 24.3547 35.0265 23.672C34.9838 23.544 34.9412 23.416 34.8985 23.288C34.8985 23.16 34.8985 23.032 34.8985 22.904C34.3438 23.7147 33.7678 24.4827 33.1705 25.208C32.6158 25.8907 32.1252 26.488 31.6985 27C31.5278 27.256 31.3785 27.384 31.2505 27.384C31.1652 27.384 31.1225 27.2987 31.1225 27.128C31.1225 26.744 31.2932 26.3387 31.6345 25.912C31.9758 25.528 32.3598 25.0587 32.7865 24.504C33.2132 23.9067 33.5545 23.4373 33.8105 23.096C34.5358 22.0293 35.0692 21.1973 35.4105 20.6C35.7945 19.96 36.1998 19.384 36.6265 18.872C37.0958 18.3173 37.6718 17.8693 38.3545 17.528C39.0798 17.1867 39.8265 17.016 40.5945 17.016C41.4905 17.016 42.3012 17.1653 43.0265 17.464C43.7945 17.72 44.1998 18.4027 44.2425 19.512C44.2425 20.024 44.1358 20.5573 43.9225 21.112C43.7518 21.624 43.5598 22.1147 43.3465 22.584C43.2185 22.84 43.0265 23.032 42.7705 23.16C42.5572 23.2453 42.4505 23.2027 42.4505 23.032C42.4505 22.8613 42.4718 22.6693 42.5145 22.456C42.5572 22.2427 42.5785 22.0507 42.5785 21.88C42.5785 21.1547 42.4505 20.5147 42.1945 19.96C41.9812 19.3627 41.6612 18.936 41.2345 18.68C40.8078 18.3813 40.3598 18.232 39.8905 18.232C39.2078 18.232 38.5465 18.5093 37.9065 19.064C37.2665 19.576 36.9465 20.2587 36.9465 21.112C36.9465 21.1973 36.9465 21.304 36.9465 21.432C36.9465 21.56 36.9678 21.6667 37.0105 21.752C37.1812 22.4347 37.6932 23.2027 38.5465 24.056C39.3998 24.9093 40.0612 25.656 40.5305 26.296C41.3412 27.4053 41.7465 28.536 41.7465 29.688C41.7465 30.84 41.4052 31.9067 40.7225 32.888C40.0825 33.8267 39.2078 34.5733 38.0985 35.128C37.0318 35.7253 35.8585 36.024 34.5785 36.024ZM49.4535 36.024C48.6855 36.024 47.8748 35.9173 47.0215 35.704C46.1682 35.4907 45.4002 35.1493 44.7175 34.68C44.0775 34.168 43.6508 33.4853 43.4375 32.632C43.3948 32.504 43.3735 32.312 43.3735 32.056C43.3735 31.4587 43.5015 30.7973 43.7575 30.072C44.0562 29.3467 44.4188 28.8347 44.8455 28.536C45.0162 28.4507 45.1442 28.4507 45.2295 28.536C45.3575 28.6213 45.3788 28.7067 45.2935 28.792C45.2508 28.92 45.1868 29.0907 45.1015 29.304C45.0162 29.4747 44.9522 29.6667 44.9095 29.88C44.7815 30.9893 45.0162 31.9707 45.6135 32.824C45.8695 33.1653 46.1682 33.4853 46.5095 33.784C46.8935 34.0827 47.2562 34.3387 47.5975 34.552C47.8962 34.7227 48.2588 34.8507 48.6855 34.936C49.1122 34.9787 49.5388 35 49.9655 35C50.6482 35 51.3095 34.9147 51.9495 34.744C52.5895 34.5733 53.0588 34.296 53.3575 33.912C53.9122 33.2293 54.1895 32.4613 54.1895 31.608C54.1895 30.968 54.0188 30.2853 53.6775 29.56C53.3362 28.8347 52.8028 28.0667 52.0775 27.256C51.6082 26.744 51.1602 26.1893 50.7335 25.592C50.3068 24.9947 50.0295 24.3547 49.9015 23.672C49.8588 23.544 49.8162 23.416 49.7735 23.288C49.7735 23.16 49.7735 23.032 49.7735 22.904C49.2188 23.7147 48.6428 24.4827 48.0455 25.208C47.4908 25.8907 47.0002 26.488 46.5735 27C46.4028 27.256 46.2535 27.384 46.1255 27.384C46.0402 27.384 45.9975 27.2987 45.9975 27.128C45.9975 26.744 46.1682 26.3387 46.5095 25.912C46.8508 25.528 47.2348 25.0587 47.6615 24.504C48.0882 23.9067 48.4295 23.4373 48.6855 23.096C49.4108 22.0293 49.9442 21.1973 50.2855 20.6C50.6695 19.96 51.0748 19.384 51.5015 18.872C51.9708 18.3173 52.5468 17.8693 53.2295 17.528C53.9548 17.1867 54.7015 17.016 55.4695 17.016C56.3655 17.016 57.1762 17.1653 57.9015 17.464C58.6695 17.72 59.0748 18.4027 59.1175 19.512C59.1175 20.024 59.0108 20.5573 58.7975 21.112C58.6268 21.624 58.4348 22.1147 58.2215 22.584C58.0935 22.84 57.9015 23.032 57.6455 23.16C57.4322 23.2453 57.3255 23.2027 57.3255 23.032C57.3255 22.8613 57.3468 22.6693 57.3895 22.456C57.4322 22.2427 57.4535 22.0507 57.4535 21.88C57.4535 21.1547 57.3255 20.5147 57.0695 19.96C56.8562 19.3627 56.5362 18.936 56.1095 18.68C55.6828 18.3813 55.2348 18.232 54.7655 18.232C54.0828 18.232 53.4215 18.5093 52.7815 19.064C52.1415 19.576 51.8215 20.2587 51.8215 21.112C51.8215 21.1973 51.8215 21.304 51.8215 21.432C51.8215 21.56 51.8428 21.6667 51.8855 21.752C52.0562 22.4347 52.5682 23.2027 53.4215 24.056C54.2748 24.9093 54.9362 25.656 55.4055 26.296C56.2162 27.4053 56.6215 28.536 56.6215 29.688C56.6215 30.84 56.2802 31.9067 55.5975 32.888C54.9575 33.8267 54.0828 34.5733 52.9735 35.128C51.9068 35.7253 50.7335 36.024 49.4535 36.024ZM64.1365 35.512C62.3872 35.512 61.1712 35.1707 60.4885 34.488C59.8058 33.8053 59.4645 32.9733 59.4645 31.992C59.4645 30.7547 59.7845 29.432 60.4245 28.024C61.1072 26.616 61.7472 25.4213 62.3445 24.44C63.0272 23.416 63.9445 22.3493 65.0965 21.24C66.2485 20.1307 67.5072 19.192 68.8725 18.424C70.2378 17.656 71.5605 17.272 72.8405 17.272C73.9498 17.272 74.7178 17.5493 75.1445 18.104C75.5712 18.616 75.7845 19.2347 75.7845 19.96C75.7845 21.2827 75.3792 22.3707 74.5685 23.224C73.8005 24.0773 72.8405 24.7813 71.6885 25.336C70.5365 25.848 69.4272 26.2747 68.3605 26.616C67.7205 26.7867 66.9738 26.9573 66.1205 27.128C65.2672 27.2987 64.4565 27.384 63.6885 27.384C63.3898 28.152 63.1552 28.8987 62.9845 29.624C62.8138 30.3493 62.7285 31.0107 62.7285 31.608C62.7285 32.3333 62.8992 32.9307 63.2405 33.4C63.6245 33.8693 64.2432 34.104 65.0965 34.104C65.4378 34.104 65.8432 34.0613 66.3125 33.976C66.7818 33.8907 67.2938 33.7627 67.8485 33.592C69.1285 33.1653 70.3872 32.4827 71.6245 31.544C72.8618 30.6053 73.9925 29.6027 75.0165 28.536C76.0832 27.4267 76.8938 26.5093 77.4485 25.784C77.5765 25.912 77.6405 26.0613 77.6405 26.232C77.6405 26.4453 77.4912 26.7867 77.1925 27.256C76.3392 28.4507 75.2298 29.688 73.8645 30.968C72.4992 32.248 70.9845 33.336 69.3205 34.232C67.6565 35.0853 65.9285 35.512 64.1365 35.512ZM64.2005 26.104C64.7552 26.1467 65.3738 26.1467 66.0565 26.104C66.7818 26.0187 67.4858 25.8693 68.1685 25.656C69.9178 25.144 71.1765 24.3333 71.9445 23.224C72.7552 22.072 73.1605 21.048 73.1605 20.152C73.1605 19.64 73.0538 19.2133 72.8405 18.872C72.6272 18.5307 72.2858 18.36 71.8165 18.36C70.5792 18.36 69.4698 18.8293 68.4885 19.768C67.5072 20.664 66.6538 21.7093 65.9285 22.904C65.2032 24.0987 64.6272 25.1653 64.2005 26.104ZM76.81 35.96C76.6393 35.96 76.6393 35.768 76.81 35.384C77.0233 35 77.2153 34.5733 77.386 34.104C77.5993 33.6347 77.8127 33.1227 78.026 32.568C78.4527 31.544 78.922 30.392 79.434 29.112C79.946 27.832 80.4367 26.5947 80.906 25.4C81.3753 24.1627 81.7807 23.1173 82.122 22.264C82.506 21.368 82.762 20.792 82.89 20.536C82.2927 21.176 81.5673 21.9867 80.714 22.968C79.9033 23.9067 79.1353 24.824 78.41 25.72C77.6847 26.616 77.13 27.32 76.746 27.832C76.618 28.0027 76.5113 28.088 76.426 28.088C76.3407 28.088 76.298 27.9813 76.298 27.768C76.298 27.4267 76.4047 27.1067 76.618 26.808C77.4287 25.784 78.3247 24.632 79.306 23.352C80.33 22.072 81.2473 20.8987 82.058 19.832C82.8687 18.7227 83.3807 17.9973 83.594 17.656C84.0633 17.5707 84.746 17.4427 85.642 17.272C86.5807 17.1013 87.2207 16.8667 87.562 16.568C87.69 16.44 87.818 16.376 87.946 16.376C88.0313 16.376 88.074 16.4613 88.074 16.632C88.1167 16.76 88.074 16.9093 87.946 17.08C87.69 17.3787 87.242 18.0827 86.602 19.192C86.0047 20.2587 85.3433 21.4533 84.618 22.776C83.9353 24.0987 83.2953 25.2933 82.698 26.36C83.21 25.6773 83.7647 25.016 84.362 24.376C84.9593 23.736 85.5353 23.1173 86.09 22.52C86.602 22.008 87.306 21.368 88.202 20.6C89.098 19.832 90.0367 19.128 91.018 18.488C91.9993 17.848 92.8527 17.4853 93.578 17.4C93.7487 17.3573 93.898 17.336 94.026 17.336C94.1967 17.336 94.3247 17.336 94.41 17.336C95.3487 17.336 95.818 17.6773 95.818 18.36C95.818 18.872 95.5407 19.5547 94.986 20.408C94.6873 20.8773 94.218 21.6667 93.578 22.776C92.9807 23.8427 92.362 25.016 91.722 26.296C91.1247 27.5333 90.5913 28.7067 90.122 29.816C89.6953 30.8827 89.482 31.672 89.482 32.184C89.482 32.7813 89.7807 33.08 90.378 33.08C91.1033 33.08 91.8927 32.7173 92.746 31.992C93.642 31.2667 94.602 30.3493 95.626 29.24C96.65 28.088 97.674 26.872 98.698 25.592C98.7833 25.6773 98.826 25.8267 98.826 26.04C98.826 26.3387 98.7193 26.6373 98.506 26.936C98.3353 27.192 98.1647 27.4267 97.994 27.64C97.5673 28.1947 96.9913 28.8987 96.266 29.752C95.5833 30.5627 94.8793 31.3733 94.154 32.184C93.4287 32.952 92.7673 33.5707 92.17 34.04C91.7433 34.3387 91.1887 34.6587 90.506 35C89.8233 35.3413 89.1407 35.512 88.458 35.512C87.69 35.512 87.1567 35.32 86.858 34.936C86.5593 34.5093 86.41 33.9973 86.41 33.4C86.41 32.7173 86.538 31.992 86.794 31.224C87.05 30.456 87.3273 29.7307 87.626 29.048C87.9673 28.3227 88.2233 27.7893 88.394 27.448C89.162 25.9547 89.866 24.5467 90.506 23.224C91.146 21.9013 91.594 20.9627 91.85 20.408C91.978 20.152 92.042 19.9387 92.042 19.768C92.042 19.4693 91.8073 19.448 91.338 19.704C90.8687 19.96 90.2927 20.344 89.61 20.856C88.97 21.368 88.3727 21.88 87.818 22.392C87.2633 22.8613 86.9007 23.1813 86.73 23.352C85.1513 25.016 83.7647 26.872 82.57 28.92C81.418 30.9253 80.4367 32.9947 79.626 35.128C79.0713 35.1707 78.5167 35.32 77.962 35.576C77.4073 35.832 77.0233 35.96 76.81 35.96ZM100.239 35.512C98.6603 35.512 97.551 35.2133 96.911 34.616C96.271 34.0187 95.951 33.2507 95.951 32.312C95.951 31.0747 96.3563 29.7093 97.167 28.216C97.9777 26.68 98.7457 25.4 99.471 24.376C100.196 23.3947 101.007 22.4773 101.903 21.624C102.842 20.728 103.844 19.96 104.911 19.32C105.594 18.8933 106.511 18.4453 107.663 17.976C108.858 17.464 109.86 17.208 110.671 17.208C111.652 17.208 112.335 17.4427 112.719 17.912C113.103 18.3387 113.295 18.872 113.295 19.512C113.295 20.024 113.21 20.5573 113.039 21.112C112.868 21.624 112.676 22.1147 112.463 22.584C112.335 22.84 112.143 23.032 111.887 23.16C111.631 23.2453 111.503 23.2027 111.503 23.032C111.503 22.8187 111.524 22.6267 111.567 22.456C111.61 22.2853 111.631 22.0933 111.631 21.88C111.631 21.0693 111.439 20.28 111.055 19.512C110.714 18.7013 110.18 18.296 109.455 18.296C108.687 18.296 107.855 18.5733 106.959 19.128C106.063 19.64 105.444 20.088 105.103 20.472C103.994 21.624 102.906 23.0533 101.839 24.76C100.815 26.4667 100.068 28.088 99.599 29.624C99.3003 30.52 99.151 31.288 99.151 31.928C99.151 32.6533 99.343 33.1653 99.727 33.464C100.111 33.7627 100.58 33.912 101.135 33.912C101.562 33.912 102.01 33.848 102.479 33.72C102.991 33.592 103.524 33.4427 104.079 33.272C105.359 32.8453 106.639 32.184 107.919 31.288C109.242 30.3493 110.436 29.368 111.503 28.344C112.57 27.2773 113.38 26.36 113.935 25.592C114.02 25.6773 114.063 25.8053 114.063 25.976C114.063 26.1893 113.978 26.4453 113.807 26.744C113.636 27 113.508 27.2133 113.423 27.384C112.527 28.5787 111.354 29.816 109.903 31.096C108.452 32.3333 106.874 33.3787 105.167 34.232C103.503 35.0853 101.86 35.512 100.239 35.512ZM116.449 35.512C114.7 35.512 113.484 35.1707 112.801 34.488C112.118 33.8053 111.777 32.9733 111.777 31.992C111.777 30.7547 112.097 29.432 112.737 28.024C113.42 26.616 114.06 25.4213 114.657 24.44C115.34 23.416 116.257 22.3493 117.409 21.24C118.561 20.1307 119.82 19.192 121.185 18.424C122.55 17.656 123.873 17.272 125.153 17.272C126.262 17.272 127.03 17.5493 127.457 18.104C127.884 18.616 128.097 19.2347 128.097 19.96C128.097 21.2827 127.692 22.3707 126.881 23.224C126.113 24.0773 125.153 24.7813 124.001 25.336C122.849 25.848 121.74 26.2747 120.673 26.616C120.033 26.7867 119.286 26.9573 118.433 27.128C117.58 27.2987 116.769 27.384 116.001 27.384C115.702 28.152 115.468 28.8987 115.297 29.624C115.126 30.3493 115.041 31.0107 115.041 31.608C115.041 32.3333 115.212 32.9307 115.553 33.4C115.937 33.8693 116.556 34.104 117.409 34.104C117.75 34.104 118.156 34.0613 118.625 33.976C119.094 33.8907 119.606 33.7627 120.161 33.592C121.441 33.1653 122.7 32.4827 123.937 31.544C125.174 30.6053 126.305 29.6027 127.329 28.536C128.396 27.4267 129.206 26.5093 129.761 25.784C129.889 25.912 129.953 26.0613 129.953 26.232C129.953 26.4453 129.804 26.7867 129.505 27.256C128.652 28.4507 127.542 29.688 126.177 30.968C124.812 32.248 123.297 33.336 121.633 34.232C119.969 35.0853 118.241 35.512 116.449 35.512ZM116.513 26.104C117.068 26.1467 117.686 26.1467 118.369 26.104C119.094 26.0187 119.798 25.8693 120.481 25.656C122.23 25.144 123.489 24.3333 124.257 23.224C125.068 22.072 125.473 21.048 125.473 20.152C125.473 19.64 125.366 19.2133 125.153 18.872C124.94 18.5307 124.598 18.36 124.129 18.36C122.892 18.36 121.782 18.8293 120.801 19.768C119.82 20.664 118.966 21.7093 118.241 22.904C117.516 24.0987 116.94 25.1653 116.513 26.104Z" fill="#F2F2F2"/>
</svg>
