<svg width="32" height="32" viewBox="0 0 32 32" fill="none" xmlns="http://www.w3.org/2000/svg">
<path d="M30 23.3333C30 24.806 28.806 26 27.3333 26H4.66667C3.194 26 2 24.806 2 23.3333V8.66667C2 7.194 3.194 6 4.66667 6H27.3333C28.806 6 30 7.194 30 8.66667V23.3333Z" fill="#3F51B5"/>
<path d="M19.9999 9.33325C18.2318 9.33325 16.5361 10.0356 15.2859 11.2859C14.0356 12.5361 13.3333 14.2318 13.3333 15.9999C13.3333 17.768 14.0356 19.4637 15.2859 20.714C16.5361 21.9642 18.2318 22.6666 19.9999 22.6666C21.768 22.6666 23.4637 21.9642 24.714 20.714C25.9642 19.4637 26.6666 17.768 26.6666 15.9999C26.6666 14.2318 25.9642 12.5361 24.714 11.2859C23.4637 10.0356 21.768 9.33325 19.9999 9.33325Z" fill="#FFC107"/>
<path d="M14.6761 19.9999C14.3667 19.5886 14.1007 19.1439 13.8921 18.6666H17.4421C17.6274 18.2426 17.7727 17.7973 17.8667 17.3333H13.4681C13.3801 16.9026 13.3334 16.4573 13.3334 15.9999H18.0001C18.0001 15.5426 17.9534 15.0973 17.8661 14.6666H13.4674C13.5621 14.2026 13.7067 13.7573 13.8921 13.3333H17.4421C17.2334 12.8559 16.9681 12.4113 16.6581 11.9999H14.6761C14.9674 11.6133 15.2961 11.2519 15.6634 10.9366C14.4981 9.93925 12.9874 9.33325 11.3334 9.33325C7.65141 9.33325 4.66675 12.3179 4.66675 15.9999C4.66675 19.6819 7.65141 22.6666 11.3334 22.6666C13.5127 22.6666 15.4414 21.6166 16.6574 19.9999H14.6761Z" fill="#FF3D00"/>
</svg>
