<svg width="32" height="32" viewBox="0 0 32 32" fill="none" xmlns="http://www.w3.org/2000/svg">
<g clip-path="url(#clip0_144_225)">
<path d="M16 0.0300293C14.672 0.0300293 13.3446 0.534157 12.335 1.54378L1.54373 12.3338C-0.475514 14.353 -0.475514 17.6458 1.54373 19.665L12.335 30.4563C14.3537 32.475 17.6462 32.475 19.665 30.4563L30.4562 19.6663C32.4755 17.647 32.4755 14.3543 30.4562 12.335L19.6662 1.54378C18.6566 0.534157 17.328 0.0300293 16 0.0300293ZM16 1.30128C16.9977 1.30128 17.9961 1.68368 18.7612 2.44878L24.6312 8.32003H23.725C22.7068 8.32003 21.7301 8.72444 21.01 9.44378V9.44503L16.6787 13.7763C16.2988 14.1563 15.7007 14.1566 15.32 13.7763L10.9887 9.44503C10.2696 8.72513 9.29319 8.32003 8.27498 8.32003H7.36748L13.24 2.44878C14.0051 1.68368 15.0022 1.30128 16 1.30128ZM6.08748 9.60003H8.27498C8.95405 9.60003 9.60478 9.86932 10.0837 10.3488V10.35L14.415 14.6813C15.2848 15.5502 16.7144 15.5506 17.5837 14.6813L21.915 10.35C22.3955 9.86998 23.0459 9.60003 23.725 9.60003H25.9112L29.5512 13.24C31.0814 14.7702 31.0814 17.2311 29.5512 18.7613L25.9125 22.4H23.725C23.0459 22.4 22.3955 22.1301 21.915 21.65L17.5837 17.3188C17.1491 16.8841 16.5746 16.6675 16 16.6675C15.4254 16.6675 14.8499 16.8843 14.415 17.3188L10.0837 21.65V21.6513C9.60478 22.1307 8.95405 22.4 8.27498 22.4H6.08873L2.44873 18.76C0.918536 17.2298 0.918536 14.769 2.44873 13.2388L6.08748 9.60003ZM16 17.9388C16.2446 17.9388 16.4887 18.0338 16.6787 18.2238L21.01 22.555V22.5563C21.7301 23.2756 22.7068 23.68 23.725 23.68H24.6325L18.76 29.5513C17.2306 31.0807 14.7694 31.0807 13.24 29.5513L7.36873 23.68H8.27498C9.29319 23.68 10.2696 23.2749 10.9887 22.555L15.32 18.2238C15.5104 18.0336 15.7554 17.9387 16 17.9388Z" fill="black"/>
</g>
<defs>
<clipPath id="clip0_144_225">
<rect width="32" height="32" fill="white"/>
</clipPath>
</defs>
</svg>
