<svg width="32" height="32" viewBox="0 0 32 32" fill="none" xmlns="http://www.w3.org/2000/svg">
<path d="M3.2 4.47998C1.44 4.47998 0 5.91998 0 7.67998V24.32C0 26.08 1.44 27.52 3.2 27.52H28.8C30.56 27.52 32 26.08 32 24.32V7.67998C32 5.91998 30.56 4.47998 28.8 4.47998H3.2ZM3.2 5.75998H28.8C29.8675 5.75998 30.72 6.61248 30.72 7.67998V24.32C30.72 25.3875 29.8675 26.24 28.8 26.24H3.2C2.1325 26.24 1.28 25.3875 1.28 24.32V7.67998C1.28 6.61248 2.1325 5.75998 3.2 5.75998ZM19 12.42C17.015 12.42 16 13.3975 16 14.64C16 16.8875 18.6 16.585 18.6 17.74C18.6 17.935 18.45 18.4 17.36 18.4C16.2675 18.4 15.56 17.98 15.56 17.98L15.22 19.5C15.22 19.5 15.9275 19.9 17.28 19.9C18.6325 19.9 20.5 18.865 20.5 17.36C20.5 15.55 17.9 15.4075 17.9 14.6C17.9 14.1875 18.22 13.88 19.16 13.88C19.77 13.88 20.46 14.34 20.46 14.34L20.78 12.78C20.78 12.78 19.8725 12.42 19 12.42ZM10.54 12.56L8.82 17.64C8.82 17.64 8.7025 17.2075 8.66 16.94C7.6775 14.735 6.08 13.92 6.08 13.92L7.6 19.68H9.68L12.56 12.56H10.54ZM13.3 12.56L12.18 19.68H14.08L15.22 12.56H13.3ZM23.56 12.56L20.46 19.68H22.34L22.72 18.66H25.08L25.28 19.68H27L25.54 12.56H23.56ZM4 12.58C4 12.58 7.715 13.73 8.58 16.52L7.94 13.28C7.94 13.28 7.665 12.58 6.92 12.58H4ZM24.28 14.62L24.8 17.3H23.24L24.28 14.62Z" fill="black"/>
</svg>
